<svg width="120" height="120" viewBox="0 0 120 120" fill="none" xmlns="http://www.w3.org/2000/svg">
<path d="M42.6667 6.66666C39.2 10.1333 39.3333 14 42.8 17.4667C44.9333 19.6 46.5333 20.1333 50.1333 19.4667C53.8667 18.6667 58.5333 19.8667 61.2 22.1333C61.4667 22.2667 60.2667 24.4 58.6667 26.6667C56.9333 29.0667 56 31.8667 56.4 33.3333C57.0667 35.7333 56.4 36 49.2 36C43.3333 36 41.0667 36.5333 40.5333 38C39.8667 39.4667 37.7333 40 32.5333 40C23.3333 40 20 42.9333 20 51.0667C20 56.4 19.7333 56.8 16.4 56.6667H12.6667V72V87.3333H16.4C19.8667 87.2 20 87.4667 20 94.9333C20 105.333 22.5333 108 32.5333 108H39.8667L40.2667 102.267L40.6667 96.6667L47.8667 96.2667C53.3333 96 55.4667 96.4 56.2667 97.8667C57.7333 100.533 62.5333 100.667 63.4667 98C64 96.9333 65.0667 96 66 96C66.9333 96 68 96.9333 68.5333 98C69.4667 100.667 74.2667 100.533 75.7333 97.8667C77.7333 94.4 80 97.0667 80 102.8V108H87.3333C97.2 108 100 105.2 100 95.8667C100 91.7333 100.667 88.4 101.867 87.4667C104.533 85.3333 112.4 64.4 111.467 61.8667C109.867 57.7333 105.067 60.4 102.533 66.6667L100.133 72.6667V58.9333C100 42.1333 98.6667 40 87.4667 40C82.2667 40 80.1333 39.4667 79.4667 38C78.9333 36.5333 76.8 36 72.1333 36C68.1333 36 65.3333 35.3333 64.9333 34.2667C64.6667 33.4667 66.1333 30.1333 68.2667 26.9333C70.4 23.8667 72 20.2667 71.7333 19.2C71.4667 18 68.4 15.8667 64.6667 14.4C61.0667 12.9333 56.4 9.99999 54.4 7.86666C50.2667 3.33333 46.4 2.93333 42.6667 6.66666ZM48.6667 63.3333C50.5333 65.0667 52 68.1333 52 70C52 71.8667 50.5333 74.9333 48.6667 76.6667C44.5333 80.9333 39.4667 80.9333 35.3333 76.6667C33.4667 74.9333 32 71.8667 32 70C32 65.6 37.6 60 42 60C43.8667 60 46.9333 61.4667 48.6667 63.3333ZM76.6667 63.6C76.6667 68.5333 82.1333 69.7333 83.8667 65.2L84.9333 62.1333L86.5333 64.9333C87.3333 66.5333 88 69.0667 88 70.6667C88 74.5333 82.1333 80 78 80C76.1333 80 73.0667 78.5333 71.3333 76.6667C69.4667 74.9333 68 71.8667 68 70C68 66.8 73.2 60 75.6 60C76.2667 60 76.8 61.6 76.6667 63.6Z" fill="black"/>
<path d="M36.5333 69.8667C35.2 73.3333 37.0667 76.2667 40.2667 75.7333C44.6667 75.2 44.6667 68.8 40.2667 68.2667C38.5333 68 36.9333 68.6667 36.5333 69.8667Z" fill="black"/>
<path d="M97.0667 8.39999C89.0667 12.8 88 14.9333 91.2 19.4667C92.9333 21.7333 92.8 22.5333 90.4 26.4C88.9333 28.8 88 31.2 88.4 31.6C89.3333 32.4 103.467 24.5333 104.8 22.5333C105.2 21.8667 104.533 19.7333 103.333 17.8667C101.333 14.8 101.333 14.2667 103.867 10.1333C108.667 2.53332 107.733 2.39999 97.0667 8.39999Z" fill="black"/>
<path d="M16 12.6667C16 12.9333 16.6667 16.2667 17.4667 20.1333C18.9333 26.6667 19.0667 26.9333 22.8 26.1333C25.7333 25.6 26.9333 26 28 28C30.4 32.4 32.2667 31.0667 31.2 25.6C29.8667 18 28.5333 16.2667 24.8 16.9333C22.5333 17.4667 21.0667 16.8 19.7333 14.8C18.2667 12.2667 16 11.0667 16 12.6667Z" fill="black"/>
</svg>
